<svg width="17" height="20" viewBox="0 0 17 20" fill="none" xmlns="http://www.w3.org/2000/svg">
<path d="M0.512823 16.5723H16.0594" stroke="#0F3F62" stroke-linecap="round" stroke-linejoin="round"/>
<path d="M1.48413 9.77066C1.48413 6.01421 4.52933 2.96901 8.28578 2.96901V2.96901C12.0422 2.96901 15.0874 6.01421 15.0874 9.77066V16.5723H1.48413V9.77066Z" stroke="#0F3F62" stroke-linecap="round" stroke-linejoin="round"/>
<path d="M6.60264 16.5722V16.0594C6.41958 16.0594 6.2504 16.157 6.15874 16.3154L6.60264 16.5722ZM9.96936 16.5722L10.4133 16.3154C10.3216 16.157 10.1524 16.0594 9.96936 16.0594V16.5722ZM6.8555 17.5438C6.8555 17.2824 6.92514 17.0389 7.04655 16.829L6.15874 16.3154C5.94946 16.6772 5.82985 17.0973 5.82985 17.5438H6.8555ZM8.286 18.9744C7.49595 18.9744 6.8555 18.3339 6.8555 17.5438H5.82985C5.82985 18.9003 6.92951 20 8.286 20V18.9744ZM9.71651 17.5438C9.71651 18.3339 9.07605 18.9744 8.286 18.9744V20C9.64249 20 10.7422 18.9003 10.7422 17.5438H9.71651ZM9.52545 16.829C9.64686 17.0389 9.71651 17.2824 9.71651 17.5438H10.7422C10.7422 17.0973 10.6225 16.6772 10.4133 16.3154L9.52545 16.829ZM9.96936 16.0594H6.60264V17.085H9.96936V16.0594Z" fill="#0F3F62"/>
<circle cx="12.3077" cy="3.07694" r="3.07694" fill="#F4694C"/>
</svg>
