<svg width="18" height="17" viewBox="0 0 18 17" fill="none" xmlns="http://www.w3.org/2000/svg">
<path d="M0.837901 14.2515L2.54556 8.33951L0.837901 2.42757C0.768959 2.18837 0.770313 1.93438 0.841801 1.69593C0.913289 1.45748 1.05189 1.24464 1.24106 1.08282C1.43022 0.921007 1.66196 0.817048 1.90861 0.78336C2.15526 0.749672 2.40639 0.787678 2.63202 0.892841L16.5959 7.37761C16.7846 7.46358 16.9446 7.60202 17.0567 7.7764C17.1689 7.95079 17.2286 8.15377 17.2286 8.36113C17.2286 8.56849 17.1689 8.77147 17.0567 8.94585C16.9446 9.12024 16.7846 9.25868 16.5959 9.34465L2.63202 15.8294C2.40242 15.9402 2.14525 15.9809 1.89267 15.9463C1.64008 15.9118 1.40327 15.8036 1.21184 15.6352C1.02041 15.4668 0.882848 15.2458 0.81634 14.9997C0.749832 14.7536 0.757332 14.4933 0.837901 14.2515Z" stroke="white" stroke-width="1.5" stroke-linecap="round" stroke-linejoin="round"/>
<path d="M2.54588 8.3395H7.23653" stroke="white" stroke-width="1.5" stroke-linecap="round" stroke-linejoin="round"/>
</svg>
