<svg width="18" height="16" viewBox="0 0 18 16" fill="none" xmlns="http://www.w3.org/2000/svg">
<path d="M15.1707 15.3776H2.67143C1.54445 15.3776 0.622376 14.4555 0.622376 13.3285V4.21022C0.622376 3.08323 1.54445 2.16116 2.67143 2.16116H15.1707C16.2977 2.16116 17.2197 3.08323 17.2197 4.21022V13.3285C17.2197 14.4555 16.2977 15.3776 15.1707 15.3776Z" stroke="#8695A0" stroke-width="1.2" stroke-miterlimit="10" stroke-linecap="round" stroke-linejoin="round"/>
<path d="M5.13645 3.79841L5.13957 0.622376" stroke="#8695A0" stroke-width="1.2" stroke-miterlimit="10" stroke-linecap="round" stroke-linejoin="round"/>
<path d="M12.6162 3.80361L12.6193 0.627568" stroke="#8695A0" stroke-width="1.2" stroke-miterlimit="10" stroke-linecap="round" stroke-linejoin="round"/>
<path d="M8.92444 5.74778L9.8446 7.69529L12.0983 8.00487L10.4574 9.6425L10.8651 11.7944L8.9195 10.768L6.97189 11.7906L7.28137 9.63938L5.74618 7.99863L7.898 7.69338L8.92444 5.74778Z" stroke="#8695A0" stroke-width="1.2" stroke-miterlimit="10" stroke-linecap="round" stroke-linejoin="round"/>
</svg>
