<svg width="17" height="18" viewBox="0 0 17 18" fill="none" xmlns="http://www.w3.org/2000/svg">
<path d="M10.1157 8.91808L6.85631 8.91486C6.31307 8.91432 5.76941 9.35108 5.76877 10.007L5.76172 17.2225L11.1941 17.2278L11.2011 10.0124C11.2018 9.35645 10.7676 8.91873 10.1157 8.91808Z" stroke="#54BCBD" stroke-width="1.5" stroke-miterlimit="10"/>
<path d="M14.135 17.2248H2.94434C1.74922 17.2248 0.771396 16.2409 0.771396 15.0383V7.38555C0.771396 6.7296 1.09734 6.07365 1.64057 5.63635L7.18158 1.26336C7.94212 0.607408 9.02859 0.607408 9.78912 1.26336L15.3301 5.63635C15.8734 6.07365 16.1993 6.62027 16.1993 7.38555V15.0383C16.1993 16.2409 15.3301 17.2248 14.135 17.2248Z" stroke="#54BCBD" stroke-width="1.5" stroke-miterlimit="10"/>
</svg>
