<svg width="15" height="16" viewBox="0 0 15 16" fill="none" xmlns="http://www.w3.org/2000/svg">
<path d="M2.31017 16C2.05382 15.9145 1.79747 15.9145 1.54111 15.8291C0.430249 15.4873 -0.25336 14.3764 0.0884445 13.2656C0.259347 12.7529 0.601151 12.411 1.02841 12.2401C1.54111 12.0692 2.05382 11.9838 2.56653 11.9838C2.90833 11.9838 3.33559 11.9838 3.67739 11.8983C4.1901 11.8129 4.361 11.5565 4.44645 11.0438C4.44645 10.9584 4.44645 10.7875 4.44645 10.702C4.44645 7.54033 4.44645 6.00221 4.44645 2.84052C4.44645 2.75507 4.44645 2.66962 4.44645 2.58417C4.44645 2.24236 4.61736 2.07146 4.95916 1.98601C5.47187 1.81511 5.98457 1.72965 6.49728 1.55875C8.97536 1.04604 11.4534 0.533338 13.9315 0.020631C14.4442 -0.0648201 14.786 0.106082 14.786 0.70424C14.786 1.4733 14.786 2.24236 14.786 3.01142C14.786 6.51492 14.786 8.30939 14.786 11.8129C14.786 13.0947 13.8461 14.1201 12.5643 14.2055C11.8807 14.2055 11.2825 14.2055 10.5989 13.9492C9.57352 13.5219 9.06082 12.582 9.31717 11.5565C9.40262 11.0438 9.65897 10.7875 10.0862 10.5311C10.5989 10.2748 11.1116 10.1893 11.6244 10.1893C12.0516 10.1893 12.4789 10.1893 12.9061 10.1039C13.4188 10.0184 13.6752 9.76206 13.6752 9.24936C13.6752 9.16391 13.6752 9.07845 13.6752 8.90755C13.6752 6.94217 13.6752 7.45488 13.6752 5.48951C13.6752 5.40405 13.6752 5.23315 13.6752 5.1477C13.6752 4.89135 13.5043 4.8059 13.2479 4.8059C12.8207 4.89135 12.3934 4.9768 12.0516 5.06225C10.0008 5.48951 7.94995 5.91676 5.98457 6.42947C5.64277 6.42947 5.64277 6.51492 5.55732 6.77127C5.55732 6.85672 5.55732 7.02763 5.55732 7.11308C5.55732 10.1039 5.55732 10.5311 5.55732 13.5219C5.55732 14.8037 4.70281 15.5727 3.76284 15.8291C3.50649 15.9145 3.25014 15.9145 2.90833 16C2.73743 16 2.48108 16 2.31017 16Z" fill="#F4694C"/>
</svg>
