<svg width="17" height="24" viewBox="0 0 17 24" fill="none" xmlns="http://www.w3.org/2000/svg">
<path d="M14.9333 0H0.839564C0.375885 0 0 0.375886 0 0.839565V9.51111C0 9.90385 0.318375 10.2222 0.711111 10.2222C3.67904 10.2222 6.11172 12.9749 6.44896 16.4946C6.49319 16.9561 6.113 17.3333 5.64932 17.3333H0.839565C0.375886 17.3333 0 17.7092 0 18.1729V23.1604C0 23.6241 0.375886 24 0.839565 24H1.51111C9.86667 24 16.7111 17.1556 16.7111 8.8V1.77778C16.7111 0.8 15.9111 0 14.9333 0ZM8.35556 6.13333C7.37778 6.13333 6.66667 6.93333 6.66667 7.82222H4.88889C4.88889 5.86667 6.48889 4.35556 8.35556 4.35556C10.2222 4.35556 11.8222 5.95556 11.8222 7.82222H10.0444C10.0444 6.84444 9.33333 6.13333 8.35556 6.13333ZM11.9111 13.7778C10.8444 13.7778 9.95556 13.0667 9.95556 11.9111C9.95556 10.2222 11.9111 8.88889 11.9111 8.88889C11.9111 8.88889 13.8667 10.2222 13.8667 11.9111C13.8667 12.9778 12.9778 13.7778 11.9111 13.7778Z" fill="#F4694C"/>
</svg>
