<svg width="18" height="18" viewBox="0 0 18 18" fill="none" xmlns="http://www.w3.org/2000/svg">
<path d="M9.05104 0C4.88964 0 1.45649 2.7931 0.312105 6.51724C0.104035 7.34483 0 8.17241 0 9C0 12 1.56052 14.6897 3.84929 16.3448C5.30578 17.3793 7.07438 18 9.05104 18C10.9237 18 12.6923 17.3793 14.1488 16.4483C16.4375 14.7931 17.998 12.1034 17.998 9.10345C18.1021 4.03448 14.0447 0 9.05104 0ZM13.3165 13.8621L11.4438 11.2759L12.1721 9.10345L15.5012 8.06897L16.4375 9.82759C16.3335 11.1724 15.8133 12.4138 15.0851 13.4483L13.3165 13.8621ZM4.78561 13.8621L3.01701 13.4483C2.18473 12.4138 1.66456 11.1724 1.56052 9.72414L2.49684 7.96552L5.82596 9L6.5542 11.1724L4.78561 13.8621ZM15.1891 4.65517V6.51724L11.6519 7.65517L9.88332 6.41379V2.58621L11.964 2.06897C13.2124 2.68966 14.3568 3.51724 15.1891 4.65517ZM6.2421 2.06897L8.32279 2.58621V6.31035L6.45017 7.65517L3.01701 6.51724V4.65517C3.74526 3.51724 4.88964 2.68966 6.2421 2.06897ZM7.07438 16.2414L6.03403 14.7931L7.90665 12.3103H10.2995L12.1721 14.8966L11.0277 16.3448C10.4035 16.5517 9.77928 16.5517 9.15508 16.5517C8.42683 16.4483 7.69859 16.3448 7.07438 16.2414Z" fill="#F4694C"/>
</svg>
