<svg width="18" height="18" viewBox="0 0 18 18" fill="none" xmlns="http://www.w3.org/2000/svg">
<path d="M16.093 9.00402C16.6291 8.14725 17.0581 7.29049 17.3798 6.43373C18.3449 4.07764 18.1304 2.14993 17.0581 0.971888C15.8785 -0.206158 13.9483 -0.313253 11.5892 0.650602C10.8386 1.07898 9.87346 1.50736 9.0156 2.04284C5.69138 0.00803206 2.58163 -0.527443 0.973138 1.07898C-0.206423 2.25703 -0.313656 4.18474 0.651439 6.54083C0.973138 7.39759 1.40207 8.25435 1.93823 9.11111C1.5093 9.86077 1.08037 10.8246 0.758672 11.5743C-0.206423 13.9304 0.00804239 15.8581 1.08037 17.0361C1.72377 17.6787 2.58163 18 3.65396 18C5.15522 18 7.08541 17.3574 9.0156 16.0723C9.87346 16.6078 10.7313 17.0361 11.5892 17.3574C12.6615 17.7858 13.6266 18 14.4845 18C15.5568 18 16.4147 17.6787 17.0581 17.0361C18.6666 15.4297 18.1304 12.324 16.093 9.00402ZM12.2326 2.36412C13.0904 2.04284 13.8411 1.93574 14.3772 1.93574C14.9134 1.93574 15.3423 2.04284 15.664 2.36412C16.2002 2.8996 16.2002 4.18474 15.5568 5.79116C15.3423 6.32664 15.1279 6.86211 14.8062 7.39759C14.27 6.64792 13.5194 5.89826 12.7687 5.14859C12.2326 4.39893 11.482 3.75636 10.7313 3.22088C11.2675 2.8996 11.8037 2.57831 12.2326 2.36412ZM13.8411 9.00402C13.1977 9.86078 12.447 10.7175 11.5892 11.5743C10.7313 12.4311 9.87346 13.1807 9.0156 13.8233C8.15774 13.1807 7.29987 12.4311 6.44201 11.5743C5.58415 10.8246 4.83352 9.96787 4.19012 9.00402C4.83352 8.14725 5.58415 7.29049 6.44201 6.43373C7.29987 5.57697 8.15774 4.82731 9.0156 4.18474C9.87346 4.82731 10.7313 5.57697 11.5892 6.43373C12.447 7.29049 13.1977 8.14725 13.8411 9.00402ZM2.36716 5.79116C1.831 4.18474 1.831 2.8996 2.36716 2.36412C2.68886 2.04284 3.11779 1.93574 3.65396 1.93574C4.61905 1.93574 5.90585 2.36412 7.40711 3.22088C6.65648 3.75636 5.90585 4.39893 5.15522 5.14859C4.40459 5.89826 3.76119 6.64792 3.22503 7.39759C2.90333 6.86211 2.58163 6.32664 2.36716 5.79116ZM2.36716 15.751C1.831 15.2155 1.831 13.9304 2.4744 12.324C2.68886 11.7885 2.90333 11.253 3.22503 10.7175C3.76119 11.4672 4.40459 12.2169 5.15522 12.9665C5.90585 13.7162 6.65648 14.3588 7.40711 14.8942C5.04798 16.1794 3.11779 16.5007 2.36716 15.751ZM15.7713 15.751C15.2351 16.2865 13.9483 16.2865 12.3398 15.6439C11.8037 15.4297 11.2675 15.2155 10.7313 14.8942C11.482 14.3588 12.2326 13.6091 12.9832 12.8594C13.7338 12.1098 14.3772 11.3601 15.0206 10.6104C15.3423 11.1459 15.5568 11.6814 15.7713 12.2169C16.3074 13.8233 16.3074 15.1084 15.7713 15.751Z" fill="#F4694C"/>
<path d="M9.01588 7.18359C7.94356 7.18359 7.08569 8.04035 7.08569 9.1113C7.08569 10.1823 7.94356 11.039 9.01588 11.039C10.0882 11.039 10.9461 10.1823 10.9461 9.1113C10.9461 8.04035 10.0882 7.18359 9.01588 7.18359Z" fill="#F4694C"/>
</svg>
