<svg width="18" height="15" viewBox="0 0 18 15" fill="none" xmlns="http://www.w3.org/2000/svg">
<path d="M17.8727 5.89788C17.3525 3.20979 16.1385 2.68952 14.3175 2.60281C12.2364 2.51609 11.1092 2.16924 11.1092 2.16924C11.1092 2.16924 9.98191 1.82239 8.24766 0.695133C6.60012 -0.258704 5.29943 -0.432129 3.39176 1.47554C1.48409 3.38322 -1.03057 9.01953 0.443538 10.0601C2.52464 11.5342 5.733 8.1524 8.94136 9.10624C12.1497 10.0601 12.8434 14.7425 15.4448 14.6558C17.2658 14.6558 18.393 8.58596 17.8727 5.89788ZM7.46725 5.98459L6.60012 5.72445L6.33998 6.59158C6.16656 7.02514 5.733 7.19857 5.38615 7.11185C4.95258 7.02514 4.69245 6.59158 4.86587 6.15802L5.12601 5.29089L4.25889 5.03075C3.82532 4.94404 3.6519 4.51048 3.73861 4.07692C3.91204 3.73007 4.25889 3.46993 4.69245 3.55664L5.55957 3.81678L5.81971 2.94966C5.99313 2.60281 6.4267 2.34267 6.77355 2.51609C7.20711 2.60281 7.38053 3.03637 7.29382 3.38322L7.03368 4.33706L7.90081 4.59719C8.33437 4.68391 8.5078 5.11747 8.42108 5.55103C8.24766 5.89788 7.8141 6.15802 7.46725 5.98459ZM12.2364 7.4587C11.8029 7.37199 11.6294 6.93843 11.7162 6.50487C11.8029 6.0713 12.2364 5.89788 12.67 5.98459C13.1036 6.0713 13.277 6.50487 13.1903 6.93843C13.0168 7.37199 12.5833 7.63213 12.2364 7.4587ZM13.3637 9.62651C12.9301 9.5398 12.7567 9.10624 12.8434 8.67268C12.9301 8.23911 13.3637 8.06569 13.7973 8.1524C14.2308 8.23911 14.4042 8.67268 14.3175 9.10624C14.2308 9.5398 13.7105 9.71323 13.3637 9.62651ZM14.3175 6.33144C13.884 6.24473 13.7105 5.81117 13.7973 5.3776C13.884 4.94404 14.3175 4.77062 14.7511 4.85733C15.1847 4.94404 15.3581 5.3776 15.2714 5.81117C15.1847 6.24473 14.7511 6.50487 14.3175 6.33144ZM15.4448 8.49925C15.0112 8.41254 14.8378 7.97898 14.9245 7.54541C15.0112 7.11185 15.4448 6.93843 15.8784 7.02514C16.3119 7.11185 16.4853 7.54541 16.3986 7.97898C16.2252 8.41254 15.8784 8.58596 15.4448 8.49925Z" fill="#F4694C"/>
</svg>
