<svg width="20" height="13" viewBox="0 0 20 13" fill="none" xmlns="http://www.w3.org/2000/svg">
<path d="M4.733 5.06267C5.95843 5.06387 6.95282 4.07144 6.95402 2.84601C6.95522 1.62058 5.96279 0.626196 4.73736 0.624992C3.51193 0.623788 2.51755 1.61622 2.51635 2.84165C2.51514 4.06708 3.50757 5.06146 4.733 5.06267Z" stroke="#8695A0" stroke-width="1.2" stroke-miterlimit="10" stroke-linecap="round" stroke-linejoin="round"/>
<path d="M0.625011 9.0526C0.62719 6.83377 2.40411 4.9495 4.73389 4.95179C6.0652 4.9531 7.2849 5.61995 8.06051 6.61919" stroke="#8695A0" stroke-width="1.2" stroke-miterlimit="10" stroke-linecap="round" stroke-linejoin="round"/>
<path d="M14.0537 7.06874C15.6468 7.06874 16.9382 5.77731 16.9382 4.18425C16.9382 2.59119 15.6468 1.29976 14.0537 1.29976C12.4607 1.29976 11.1692 2.59119 11.1692 4.18425C11.1692 5.77731 12.4607 7.06874 14.0537 7.06874Z" stroke="#8695A0" stroke-width="1.2" stroke-miterlimit="10" stroke-linecap="round" stroke-linejoin="round"/>
<path d="M8.72459 12.2831C8.72459 9.39863 11.0544 6.95791 14.0498 6.95791C17.0452 6.95791 19.375 9.28769 19.375 12.2831" stroke="#8695A0" stroke-width="1.2" stroke-miterlimit="10" stroke-linecap="round" stroke-linejoin="round"/>
</svg>
